P2
9 9
# portable graymap representing a sudoku solution
9
5 1 3 9 6 7 2 8 4
4 2 7 1 5 8 3 9 6
6 9 8 4 2 3 7 1 5
1 7 2 3 9 5 6 4 8
3 8 5 6 4 1 9 7 2
9 4 6 7 8 2 1 5 3
2 3 4 8 1 9 5 6 7
7 6 1 5 3 4 8 2 9
8 5 9 2 7 6 4 3 1
