P1
# Smaller dithering test
10 10
0 1 0 1 0 1 0 1 0 1
1 0 1 0 1 0 1 0 1 0 
0 1 0 1 0 1 0 1 0 1
1 0 1 0 1 0 1 0 1 0 
0 1 0 1 0 1 0 1 0 1
1 0 1 0 1 0 1 0 1 0 
0 1 0 1 0 1 0 1 0 1
1 0 1 0 1 0 1 0 1 0 
0 1 0 1 0 1 0 1 0 1
1 0 1 0 1 0 1 0 1 0 