P1
# No black edges, black square inside
10 10
0 0 0 0 0 0 0 0 0 0
0 1 1 1 1 1 1 1 1 0 
0 1 1 1 1 1 1 1 1 0 
0 1 1 1 1 1 1 1 1 0 
0 1 1 1 1 1 1 1 1 0  
0 1 1 1 1 1 1 1 1 0 
0 1 1 1 1 1 1 1 1 0 
0 1 1 1 1 1 1 1 1 0 
0 1 1 1 1 1 1 1 1 0 
0 0 0 0 0 0 0 0 0 0