P1
# This a vertical line 
1 5
0
1
1
0
0